<svg xmlns="http://www.w3.org/2000/svg" xmlns:xlink="http://www.w3.org/1999/xlink" width="436.55" height="133.5" viewBox="0 0 436.55 133.5">
  <defs>
    <linearGradient id="linear-gradient" y1="0.504" x2="1" y2="0.504" gradientUnits="objectBoundingBox">
      <stop offset="0" stop-color="#e5c5d5"/>
      <stop offset="0.42" stop-color="#ead4d1"/>
      <stop offset="1" stop-color="#f0e9cb"/>
    </linearGradient>
    <linearGradient id="linear-gradient-2" x1="31.421" y1="-16.87" x2="32.531" y2="-16.87" xlink:href="#linear-gradient"/>
    <linearGradient id="linear-gradient-3" x1="0.524" y1="-0.253" x2="0.482" y2="1.938" gradientUnits="objectBoundingBox">
      <stop offset="0.01"/>
      <stop offset="0.13" stop-opacity="0.69"/>
      <stop offset="1" stop-opacity="0"/>
    </linearGradient>
    <linearGradient id="linear-gradient-4" x1="0.548" y1="-0.36" x2="0.427" y2="1.831" xlink:href="#linear-gradient-3"/>
    <linearGradient id="linear-gradient-5" x1="0.345" y1="-3.281" x2="0.712" y2="4.473" gradientUnits="objectBoundingBox">
      <stop offset="0.02" stop-color="#fff" stop-opacity="0"/>
      <stop offset="0.32" stop-color="#fff" stop-opacity="0.388"/>
      <stop offset="0.68" stop-color="#fff" stop-opacity="0.678"/>
      <stop offset="1" stop-color="#fff"/>
    </linearGradient>
    <linearGradient id="linear-gradient-6" x1="0.358" y1="-3.031" x2="0.725" y2="4.724" xlink:href="#linear-gradient-3"/>
    <linearGradient id="linear-gradient-7" x1="0.334" y1="-3.532" x2="0.701" y2="4.223" xlink:href="#linear-gradient-3"/>
    <linearGradient id="linear-gradient-8" x1="0" y1="0.5" x2="1" y2="0.5" xlink:href="#linear-gradient-5"/>
    <linearGradient id="linear-gradient-9" x1="1.56" y1="0.928" x2="-0.323" y2="0.167" xlink:href="#linear-gradient-3"/>
    <linearGradient id="linear-gradient-10" x1="0.528" y1="1.477" x2="0.468" y2="-0.617" xlink:href="#linear-gradient-3"/>
    <linearGradient id="linear-gradient-11" x1="0.744" y1="-0.125" x2="-0.032" y2="1.862" xlink:href="#linear-gradient-3"/>
    <linearGradient id="linear-gradient-12" x1="0.5" y1="-2.372" x2="0.5" y2="10.551" gradientUnits="objectBoundingBox">
      <stop offset="0.01"/>
      <stop offset="0.13" stop-opacity="0.69"/>
      <stop offset="0.25" stop-opacity="0.322"/>
      <stop offset="1" stop-opacity="0"/>
    </linearGradient>
    <linearGradient id="linear-gradient-13" x1="0.18" y1="-4.537" x2="1.479" y2="15.885" xlink:href="#linear-gradient-12"/>
    <linearGradient id="linear-gradient-14" x1="0.112" y1="-5.228" x2="1.419" y2="15.194" xlink:href="#linear-gradient-12"/>
    <linearGradient id="linear-gradient-15" x1="0.234" y1="-4.878" x2="1.245" y2="15.544" xlink:href="#linear-gradient-12"/>
    <linearGradient id="linear-gradient-16" x1="0.695" y1="-1.481" x2="0.316" y2="2.377" xlink:href="#linear-gradient-12"/>
    <linearGradient id="linear-gradient-17" x1="1.323" y1="-0.022" x2="-1.811" y2="2.092" xlink:href="#linear-gradient-12"/>
    <linearGradient id="linear-gradient-18" x1="0.524" y1="-3.893" x2="0.477" y2="4.775" xlink:href="#linear-gradient-12"/>
    <linearGradient id="linear-gradient-19" x1="0.519" y1="-1.255" x2="0.486" y2="1.575" xlink:href="#linear-gradient-3"/>
    <linearGradient id="linear-gradient-20" x1="0.472" y1="5.306" x2="0.575" y2="-11.62" xlink:href="#linear-gradient-12"/>
    <linearGradient id="linear-gradient-21" x1="-0.16" y1="-9.119" x2="2.022" y2="22.705" xlink:href="#linear-gradient-12"/>
    <linearGradient id="linear-gradient-22" x1="-0.108" y1="-8.371" x2="2.073" y2="23.453" xlink:href="#linear-gradient-12"/>
    <linearGradient id="linear-gradient-23" x1="11.403" y1="1.042" x2="-20.117" y2="-0.457" xlink:href="#linear-gradient-12"/>
    <linearGradient id="linear-gradient-24" x1="-2.525" y1="0.372" x2="9.514" y2="0.926" xlink:href="#linear-gradient-12"/>
  </defs>
  <g id="Group_373" data-name="Group 373" transform="translate(-5292 -2903)">
    <g id="Rectangle_204" data-name="Rectangle 204" transform="translate(5292 2903)" fill="#13d7f1" stroke="#13d7f1" stroke-width="1">
      <rect width="436.17" height="133.5" stroke="none"/>
      <rect x="0.5" y="0.5" width="435.17" height="132.5" fill="none"/>
    </g>
    <path id="Path_60" data-name="Path 60" d="M108.132,76.13,93.73,109.4h63.947L170.51,75.66Z" transform="translate(5506.34 2831)" fill="#43e97b"/>
    <rect id="Rectangle_207" data-name="Rectangle 207" width="72.82" height="105.86" rx="18.54" transform="translate(5600.07 2922.66)" fill="#43e97b"/>
    <path id="Path_21" data-name="Path 21" d="M222.6,87.468v76.456c0,3.173-3.059,5.746-6.835,5.749H169.515c-3.777,0-6.838-2.574-6.835-5.749V87.468c0-2.614,2.517-4.736,5.628-4.738H216.96C220.072,82.732,222.595,84.852,222.6,87.468Z" transform="translate(5442.763 2855.108)" fill="#fff"/>
    <path id="Path_49" data-name="Path 49" d="M227.327,194.057a22.921,22.921,0,0,0-2.659,6.271l-1.979,6.362a1.474,1.474,0,0,0-.065.968.783.783,0,0,0,.627.418,23.077,23.077,0,0,0,3.039.4,148.912,148.912,0,0,0,15.443.469,3.277,3.277,0,0,0,1.808-.408c1.421-.953,1.52-3.574,1.28-5.656a37.828,37.828,0,0,0-1.52-7.058,8.794,8.794,0,0,0-1.1-2.445c-1.178-1.638-3.039-1.9-4.753-1.966C234.2,191.31,229.766,190.574,227.327,194.057Z" transform="translate(5407.809 2787.721)" fill="#68e1fd"/>
    <path id="Path_51" data-name="Path 51" d="M218.068,183.522c.344-.673.814-1.287,1.224-1.931a1.259,1.259,0,0,0,.224-.535.485.485,0,0,0-.284-.5c-.41-.144-.738.371-1.164.451s-.732-.228-1.011-.5a13.6,13.6,0,0,0-4.229-2.579.768.768,0,0,0-.546-.069c-.169.069-.219.342-.044.391a.845.845,0,0,1-.481-.109c-.153-.059-.377-.064-.448.074s.137.342.082.5a1.669,1.669,0,0,1-.546-.079c-.186-.03-.432,0-.464.193a.449.449,0,0,0,0,.193,4.108,4.108,0,0,1,0,.777,3.24,3.24,0,0,0,.912,1.862,28.276,28.276,0,0,1,2.732,3.624,4.543,4.543,0,0,0,.77,1.149c.448.436,2.109,1.055,2.546.3.208-.356.038-1.139.115-1.555A6.247,6.247,0,0,1,218.068,183.522Z" transform="translate(5414.02 2796.154)" fill="url(#linear-gradient)"/>
    <path id="Path_53" data-name="Path 53" d="M238.158,166.219a7.635,7.635,0,0,0,.1,2.508,4.98,4.98,0,0,0,3.253,3.24c1.176.4,2.57.512,3.376,1.346s.765,1.945,1.594,2.641a2.844,2.844,0,0,0,3.1.107,3.771,3.771,0,0,0,1.688-2.442,13.774,13.774,0,0,0,.194-2.913,23.9,23.9,0,0,1,.371-3.88,16.242,16.242,0,0,0,.371-2.708,7.571,7.571,0,0,0-.688-3.071,8.46,8.46,0,0,0-5.752-4.934,6.41,6.41,0,0,0-6.564,2.355,5.4,5.4,0,0,0-.7,3.071Q238.335,163.869,238.158,166.219Z" transform="translate(5396.158 2805.844)" fill="url(#linear-gradient-2)"/>
    <path id="Path_54" data-name="Path 54" d="M234.607,150.282c-.395-.222-.928-.424-1.18.046a1.485,1.485,0,0,0-.119.652,4.482,4.482,0,0,0,.571,2.276,1.339,1.339,0,0,0-1.1.45,2.325,2.325,0,0,0,.167,2.315,9.2,9.2,0,0,1,1.161,1.956c.124.411.152.867.271,1.3a1.016,1.016,0,0,0,.69.835c.428,0,.7-.587.952-1.076,1.4-2.6,4.035-3.26,6.01-1.493,1.837,1.787,2.346,5.158,2.712,8.2.186.183.3-.306.366-.6.162-.652.9-.593,1.171-.039a2.372,2.372,0,0,1-.1,1.878c-.257.561-.633,1-.914,1.546a.812.812,0,0,0-.119.463.712.712,0,0,0,.167.359,9.249,9.249,0,0,0,.723.874.794.794,0,0,0,.714.365.905.905,0,0,0,.447-.424,12.638,12.638,0,0,0,1.527-5.439c.2-1.95.19-4.148-.914-5.322a9.2,9.2,0,0,1-.676-.652,6.328,6.328,0,0,1-.866-1.67,11.908,11.908,0,0,0-5.192-5.974,4.084,4.084,0,0,0-3.141-.6,3.732,3.732,0,0,1-3.326-.235Z" transform="translate(5399.538 2806.017)" fill="#b7a451"/>
    <path id="Path_62" data-name="Path 62" d="M182.8,75.52,155.12,109.2l118.08.12H134.82l.84-.79,26.33-32.54Z" transform="translate(5454.97 2831)" fill="url(#linear-gradient-3)"/>
    <path id="Path_63" data-name="Path 63" d="M222.42,75.52,194.74,109.2l-20.3.12.84-.79,26.33-32.54Z" transform="translate(5453.331 2831)" fill="url(#linear-gradient-4)"/>
    <path id="Path_65" data-name="Path 65" d="M191.12,116.12h19.81a10,10,0,0,1-19.81,0Z" transform="translate(5415.965 2825.792)" fill="#43e97b"/>
    <path id="Path_66" data-name="Path 66" d="M171,116.12h19.81a10,10,0,0,1-19.81,0Z" transform="translate(5415.437 2825.792)" fill="#43e97b"/>
    <path id="Path_70" data-name="Path 70" d="M211.21,116.12H231a10,10,0,0,1-19.81,0Z" transform="translate(5416.492 2825.792)" fill="#43e97b"/>
    <path id="Path_72" data-name="Path 72" d="M191.12,116.12h19.81a10,10,0,0,1-19.81,0Z" transform="translate(5415.965 2825.792)" fill="url(#linear-gradient-5)"/>
    <path id="Path_73" data-name="Path 73" d="M171,116.12h19.81a10,10,0,0,1-19.81,0Z" transform="translate(5456.437 2825.792)" fill="url(#linear-gradient-6)"/>
    <path id="Path_77" data-name="Path 77" d="M211.21,116.12H231a10,10,0,0,1-19.81,0Z" transform="translate(5375.492 2825.792)" fill="url(#linear-gradient-7)"/>
    <path id="Path_80" data-name="Path 80" d="M154.61,109.39l27.38-33.15,19.04-.43L174.7,109.39Z" transform="translate(5457.702 2831)" fill="url(#linear-gradient-8)"/>
    <path id="Path_82" data-name="Path 82" d="M231.88,109.45l26.56-5.26,1.44-28.67Z" transform="translate(5416.97 2831)" fill="#43e97b"/>
    <path id="Path_83" data-name="Path 83" d="M232.1,109.17l26.56-5.26,1.45-28.67Z" transform="translate(5415.97 2831)" fill="url(#linear-gradient-9)"/>
    <path id="Path_22" data-name="Path 22" d="M232.158,225.71v19.051c0,2.381-2.737,4.311-6.115,4.313H189.83V225.71Z" transform="translate(5421.574 2770.516)" fill="#68e1fd"/>
    <path id="Path_23" data-name="Path 23" d="M233.091,225.71v19.051c0,2.379-2.8,4.308-6.246,4.313H189.83V225.71Z" transform="translate(5421.64 2770.516)" fill="url(#linear-gradient-10)"/>
    <path id="Path_50" data-name="Path 50" d="M220.533,193.024a.882.882,0,0,0-.943-.676,11.084,11.084,0,0,0-1.664.057,1.67,1.67,0,0,0-.971.338,1.419,1.419,0,0,0-.354.786c-.448,2.26.071,4.577.269,6.868.137,1.562.151,3.221,1.056,4.538a4.565,4.565,0,0,0,3.771,1.883,1.692,1.692,0,0,0,1.589-.755,1.714,1.714,0,0,0,.08-.847c-.207-2.619-1.273-8.025-1.273-8.025A39.919,39.919,0,0,0,220.533,193.024Z" transform="translate(5411.354 2789.887)" fill="#68e1fd"/>
    <rect id="Rectangle_215" data-name="Rectangle 215" width="10.93" height="9.56" transform="translate(5615.642 3003.056)" fill="#68e1fd"/>
    <circle id="Ellipse_11" data-name="Ellipse 11" cx="6.66" cy="6.66" r="6.66" transform="translate(5632.073 3000.769)" fill="#68e1fd"/>
    <circle id="Ellipse_16" data-name="Ellipse 16" cx="6.66" cy="6.66" r="6.66" transform="translate(5632.596 3000.769)" fill="url(#linear-gradient-11)"/>
    <rect id="Rectangle_217" data-name="Rectangle 217" width="131.32" height="13.13" transform="translate(5319.68 3007.973)" fill="#68e1fd"/>
    <rect id="Rectangle_218" data-name="Rectangle 218" width="131.32" height="13.13" transform="translate(5319.68 3007.973)" fill="url(#linear-gradient-12)"/>
    <path id="Path_89" data-name="Path 89" d="M286.42,214.63V241H267l-3.67-8.47a5.3,5.3,0,0,0-4.9-3.19l-12,.09a5.29,5.29,0,0,0-4.83,3.22L238,241H176.41a3.49,3.49,0,0,1-2.74-1.34l-3.91-8.16a3.34,3.34,0,0,0-2.71-1.3l-16.49.13a3.36,3.36,0,0,0-2.55,1.25l-4.42,8.12a3.49,3.49,0,0,1-2.71,1.3H125.09V212c0-15.21,6.13-36.44,17.17-36.44H255.18a23,23,0,0,1,21,13.49l9,19.82a14,14,0,0,1,1.24,5.76Z" transform="translate(5180.32 2780.113)" fill="#68e1fd"/>
    <circle id="Ellipse_17" data-name="Ellipse 17" cx="10.89" cy="10.89" r="10.89" transform="translate(5421.68 3011.053)" fill="#473f47"/>
    <circle id="Ellipse_20" data-name="Ellipse 20" cx="10.89" cy="10.89" r="10.89" transform="translate(5328.33 3011.053)" fill="#473f47"/>
    <path id="Path_90" data-name="Path 90" d="M285.17,208.85l1,3.13H125.09c0-15.21,6.13-36.44,17.17-36.44H255.18a23,23,0,0,1,21,13.49Z" transform="translate(5180.32 2780.113)" fill="#fff"/>
    <rect id="Rectangle_221" data-name="Rectangle 221" width="6.76" height="1.07" transform="translate(5314.42 2966.383)" fill="#68e1fd"/>
    <rect id="Rectangle_222" data-name="Rectangle 222" width="6.76" height="1.07" transform="translate(5314.42 2969.143)" fill="#68e1fd"/>
    <rect id="Rectangle_223" data-name="Rectangle 223" width="6.76" height="1.07" transform="translate(5314.42 2971.893)" fill="#68e1fd"/>
    <rect id="Rectangle_224" data-name="Rectangle 224" width="6.76" height="1.07" transform="translate(5314.42 2974.653)" fill="#68e1fd"/>
    <rect id="Rectangle_225" data-name="Rectangle 225" width="6.76" height="1.07" transform="translate(5314.42 2977.413)" fill="#68e1fd"/>
    <rect id="Rectangle_226" data-name="Rectangle 226" width="6.76" height="1.07" transform="translate(5314.42 2980.173)" fill="#68e1fd"/>
    <rect id="Rectangle_227" data-name="Rectangle 227" width="31.86" height="15.8" rx="2.69" transform="translate(5331.92 2966.913)" fill="#68e1fd"/>
    <path id="Path_91" data-name="Path 91" d="M268.2,202.6H241.72a2.69,2.69,0,0,1-2.69-2.7V189.49a2.68,2.68,0,0,1,2.69-2.69h21.74c1.49,0,2,.85,2.69,2.69l4.28,9.41a2.59,2.59,0,0,1-1.87,3.67A2.189,2.189,0,0,1,268.2,202.6Z" transform="translate(5180.32 2780.113)" fill="#68e1fd"/>
    <rect id="Rectangle_228" data-name="Rectangle 228" width="40.94" height="15.8" rx="3.05" transform="translate(5370.15 2966.913)" fill="#68e1fd"/>
    <rect id="Rectangle_229" data-name="Rectangle 229" width="31.86" height="15.8" rx="2.69" transform="translate(5331.92 2966.913)" fill="url(#linear-gradient-13)"/>
    <path id="Path_92" data-name="Path 92" d="M268.2,202.6H241.72a2.69,2.69,0,0,1-2.69-2.7V189.49a2.68,2.68,0,0,1,2.69-2.69h21.74c1.49,0,2,.85,2.69,2.69l4.28,9.41a2.59,2.59,0,0,1-1.87,3.67A2.189,2.189,0,0,1,268.2,202.6Z" transform="translate(5180.32 2780.113)" fill="url(#linear-gradient-14)"/>
    <rect id="Rectangle_230" data-name="Rectangle 230" width="40.94" height="15.8" rx="3.05" transform="translate(5370.15 2966.913)" fill="url(#linear-gradient-15)"/>
    <path id="Path_93" data-name="Path 93" d="M88.41,182.51h1.34a1.62,1.62,0,0,1,1.62,1.62v9.15a1.62,1.62,0,0,1-1.62,1.62H88.41Z" transform="translate(5217 2819.013)" fill="#68e1fd"/>
    <rect id="Rectangle_231" data-name="Rectangle 231" width="46.55" height="29" transform="translate(5366.98 2992.093)" fill="url(#linear-gradient-16)"/>
    <path id="Path_94" data-name="Path 94" d="M282.32,202.6h-1.91a3.43,3.43,0,0,1-3.08-1.94l-5.44-11.32a1.78,1.78,0,0,1,1.6-2.54H275Z" transform="translate(5180.32 2780.113)" fill="#68e1fd"/>
    <path id="Path_95" data-name="Path 95" d="M282.32,202.6h-1.91a3.43,3.43,0,0,1-3.08-1.94l-5.44-11.32a1.78,1.78,0,0,1,1.6-2.54H275Z" transform="translate(5180.32 2780.113)" fill="url(#linear-gradient-17)"/>
    <path id="Path_96" data-name="Path 96" d="M286.16,226.48V241H267l-3.67-8.47a5.3,5.3,0,0,0-4.9-3.19l-12,.09a5.29,5.29,0,0,0-4.83,3.22L238,241H176.41a3.49,3.49,0,0,1-2.74-1.34l-3.91-8.16a3.34,3.34,0,0,0-2.71-1.3l-16.49.13a3.36,3.36,0,0,0-2.55,1.25l-4.42,8.12a3.49,3.49,0,0,1-2.71,1.3H126V226.5Z" transform="translate(5180.32 2780.113)" fill="url(#linear-gradient-18)"/>
    <path id="Path_98" data-name="Path 98" d="M222.289,104.029c-.813,3.509,1.054,7.618,3.894,8.575,2.244.757,4.772-.24,6.886.953a15.076,15.076,0,0,1,2.3,1.941,9.715,9.715,0,0,0,10.525,1.736,9.487,9.487,0,0,1,1.9-.784,8.169,8.169,0,0,1,3.517.494,11.554,11.554,0,0,0,7.408-.695c2.183-.962,4.455-3.486,3.754-6.233-.572-2.226-2.7-3.041-4.315-4.257-3.413-2.574-5.124-7.872-8.7-10.067-3.467-2.128-8.163-.316-10.04,3.869-1.3-2.244-3.638-3.173-5.754-2.289C230.172,98.855,223.659,98.143,222.289,104.029Z" transform="translate(5313.32 2812.113)" fill="#fff"/>
    <path id="Path_103" data-name="Path 103" d="M222.289,104.029c-.813,3.509,1.054,7.618,3.894,8.575,2.244.757,4.772-.24,6.886.953a15.076,15.076,0,0,1,2.3,1.941,9.715,9.715,0,0,0,10.525,1.736,9.487,9.487,0,0,1,1.9-.784,8.169,8.169,0,0,1,3.517.494,11.554,11.554,0,0,0,7.408-.695c2.183-.962,4.455-3.486,3.754-6.233-.572-2.226-2.7-3.041-4.315-4.257-3.413-2.574-5.124-7.872-8.7-10.067-3.467-2.128-8.163-.316-10.04,3.869-1.3-2.244-3.638-3.173-5.754-2.289C230.172,98.855,223.659,98.143,222.289,104.029Z" transform="translate(5076.32 2817.113)" fill="#fff"/>
    <path id="Path_104" data-name="Path 104" d="M222.289,104.029c-.813,3.509,1.054,7.618,3.894,8.575,2.244.757,4.772-.24,6.886.953a15.076,15.076,0,0,1,2.3,1.941,9.715,9.715,0,0,0,10.525,1.736,9.487,9.487,0,0,1,1.9-.784,8.169,8.169,0,0,1,3.517.494,11.554,11.554,0,0,0,7.408-.695c2.183-.962,4.455-3.486,3.754-6.233-.572-2.226-2.7-3.041-4.315-4.257-3.413-2.574-5.124-7.872-8.7-10.067-3.467-2.128-8.163-.316-10.04,3.869-1.3-2.244-3.638-3.173-5.754-2.289C230.172,98.855,223.659,98.143,222.289,104.029Z" transform="translate(5270.32 2863.113)" fill="#fff"/>
    <path id="Path_105" data-name="Path 105" d="M222.289,104.029c-.813,3.509,1.054,7.618,3.894,8.575,2.244.757,4.772-.24,6.886.953a15.076,15.076,0,0,1,2.3,1.941,9.715,9.715,0,0,0,10.525,1.736,9.487,9.487,0,0,1,1.9-.784,8.169,8.169,0,0,1,3.517.494,11.554,11.554,0,0,0,7.408-.695c2.183-.962,4.455-3.486,3.754-6.233-.572-2.226-2.7-3.041-4.315-4.257-3.413-2.574-5.124-7.872-8.7-10.067-3.467-2.128-8.163-.316-10.04,3.869-1.3-2.244-3.638-3.173-5.754-2.289C230.172,98.855,223.659,98.143,222.289,104.029Z" transform="translate(5177.32 2828.113)" fill="#fff"/>
    <g id="Group_372" data-name="Group 372" transform="translate(-11 -82)">
      <path id="Path_20" data-name="Path 20" d="M84.642,333.261c-.872.354-1.932,1.193-1.51,2.079a1.667,1.667,0,0,0,.786.685c8.878,4.991,19.274,5.614,29.3,6.141L152.3,344.2c6.213.321,12.71.589,18.353-2.194a36.792,36.792,0,0,0,6.088-4.067q4.043-3.1,8-6.289a3.517,3.517,0,0,0,1.5-2.007,2.371,2.371,0,0,0-1.447-2.352,6.16,6.16,0,0,0-2.8-.335q-12.952.479-25.914.388a127.936,127.936,0,0,1-16.421-.872c-8.86-1.2-17.306-2.491-26.246-1.293A118.132,118.132,0,0,0,84.642,333.261Z" transform="translate(5509.162 2773.881)" fill="url(#linear-gradient-19)"/>
      <path id="Path_86" data-name="Path 86" d="M364.53,237.862q-4.1-1.757-9.357-3.443H37.317a2.051,2.051,0,0,0-.637,1.4c.067.712,1.234,1.411,3.405,2.04Z" transform="translate(5266.32 2880.413)" fill="url(#linear-gradient-20)"/>
      <rect id="Rectangle_219" data-name="Rectangle 219" width="12.53" height="4.93" rx="1.84" transform="translate(5311.06 3099.013)" fill="#68e1fd"/>
      <rect id="Rectangle_220" data-name="Rectangle 220" width="12.53" height="4.93" rx="1.84" transform="translate(5469.02 3099.013)" fill="#68e1fd"/>
      <circle id="Ellipse_18" data-name="Ellipse 18" cx="7.3" cy="7.3" r="7.3" transform="translate(5436.27 3096.643)" fill="#68e1fd"/>
      <circle id="Ellipse_19" data-name="Ellipse 19" cx="4.26" cy="4.26" r="4.26" transform="translate(5439.31 3100.093)" fill="url(#linear-gradient-21)"/>
      <circle id="Ellipse_21" data-name="Ellipse 21" cx="7.3" cy="7.3" r="7.3" transform="translate(5342.92 3096.643)" fill="#68e1fd"/>
      <circle id="Ellipse_22" data-name="Ellipse 22" cx="4.26" cy="4.26" r="4.26" transform="translate(5345.96 3100.093)" fill="url(#linear-gradient-22)"/>
      <path id="Path_110" data-name="Path 110" d="M89.942,185.768a33.471,33.471,0,0,1,1.407-33.718s10.938,14.135,1.494,33.718Z" transform="matrix(-0.017, -1, 1, -0.017, 5554.853, 3204.199)" fill="#43e97b"/>
      <path id="Path_119" data-name="Path 119" d="M97.05,152.08v32.763h1.492S107.612,168.145,97.05,152.08Z" transform="translate(5891.171 3013.329) rotate(90)" fill="url(#linear-gradient-23)"/>
    </g>
    <path id="Path_121" data-name="Path 121" d="M305.826,209.9s11.62-68.8-6.936-93.021c0,0,21.716,15.569,11.874,93.206Z" transform="translate(5406.792 2817.807)" fill="#68e1fd"/>
    <path id="Path_122" data-name="Path 122" d="M305.826,209.9s11.62-68.8-6.936-93.021c0,0,21.716,15.569,11.874,93.206Z" transform="translate(5406.792 2817.807)" fill="url(#linear-gradient-24)"/>
    <path id="Path_125" data-name="Path 125" d="M270.358,98.011A26.715,26.715,0,0,1,268.95,82.63c3.974,4.893,8.312,9.349,12.621,13.8-.709-4.049.584-8.239,3.276-10.617l2.992,8.468a44.786,44.786,0,0,1,5.24-5.774c1.453-1.34,3.327-2.6,4.973-1.676q-2.793,8.6-6.126,16.835a3.2,3.2,0,0,1,.994-2.729,5.49,5.49,0,0,1,2.333-1.132,13.439,13.439,0,0,1,3.77-.673,11.272,11.272,0,0,1,7.449,3.467,44.544,44.544,0,0,1,5.757,7.121c-4.922-.358-10.151-.63-14.449,2.407a17.272,17.272,0,0,1,3.759,7.472c-4.27-3.718-8.789-7.558-13.95-8.167a26.552,26.552,0,0,1,1.539,7.164,64.889,64.889,0,0,1-.619,17.552c-4.878-3.5-8.334-9.47-9.493-16.4a34.075,34.075,0,0,0-12.678,17.315c-1.97-4.442-3.406-9.678-2.35-14.586a15.805,15.805,0,0,1,5.621-8.869,27.132,27.132,0,0,1,8.516-4.248l-7.381-1.913c1.771-.509,6.109-1.6,7.625,0C275,105.92,272.022,101.958,270.358,98.011Z" transform="translate(5416.32 2825.113)" fill="#28e15f"/>
  </g>
</svg>
