<svg xmlns="http://www.w3.org/2000/svg" xmlns:xlink="http://www.w3.org/1999/xlink" width="436.17" height="133.5" viewBox="0 0 436.17 133.5">
  <defs>
    <linearGradient id="linear-gradient" x1="0.776" y1="0.834" x2="0.608" y2="0.616" gradientUnits="objectBoundingBox">
      <stop offset="0.01"/>
      <stop offset="0.13" stop-opacity="0.69"/>
      <stop offset="1" stop-opacity="0"/>
    </linearGradient>
    <linearGradient id="linear-gradient-2" x1="0.738" y1="0" x2="0.318" y2="1.057" xlink:href="#linear-gradient"/>
    <linearGradient id="linear-gradient-3" x1="2.481" y1="0.534" x2="-1.884" y2="0.46" xlink:href="#linear-gradient"/>
    <linearGradient id="linear-gradient-4" x1="0" y1="0.498" x2="1" y2="0.498" xlink:href="#linear-gradient"/>
    <linearGradient id="linear-gradient-5" x1="0.742" y1="0.981" x2="0.465" y2="0.529" xlink:href="#linear-gradient"/>
    <linearGradient id="linear-gradient-6" x1="0.519" y1="-1.255" x2="0.486" y2="1.575" xlink:href="#linear-gradient"/>
  </defs>
  <g id="Group_371" data-name="Group 371" transform="translate(-5327 -3291)">
    <g id="Rectangle_247" data-name="Rectangle 247" transform="translate(5327 3291)" fill="#13d7f1" stroke="#13d7f1" stroke-width="1">
      <rect width="436.17" height="133.5" stroke="none"/>
      <rect x="0.5" y="0.5" width="435.17" height="132.5" fill="none"/>
    </g>
    <text id="Galin_store" data-name="Galin store" transform="translate(5436 3346)" fill="#fff" font-size="40" font-family="MonotypeCorsiva, Monotype Corsiva"><tspan x="-77.568" y="0">Galin store</tspan></text>
    <g id="Group_370" data-name="Group 370" transform="translate(-92 2)">
      <path id="Path_131" data-name="Path 131" d="M219.231,130.231a3.643,3.643,0,0,1-.314.834,2.8,2.8,0,0,1-.991.918c-1.518.972-3.831,2.019-5.119,3.424a1.807,1.807,0,0,0-.381.568,2.454,2.454,0,0,0,.17,1.579,1.767,1.767,0,0,0,.393.736,1.116,1.116,0,0,0,1.173.027,38.887,38.887,0,0,0,4.411-1.965,17.774,17.774,0,0,0,2.344-1.421,2.446,2.446,0,0,0,.769-.813,3.314,3.314,0,0,0,.28-1c.272-1.813.456-3.644.548-5.485l.287-4.319c.057-.831,2.083-3.741,1.473-4.313-1.2-1.119-2.938,1.926-3.211,2.551C220.292,123.319,219.531,129.166,219.231,130.231Z" transform="translate(5548.208 3208.375)" fill="#43e97b"/>
      <path id="Path_132" data-name="Path 132" d="M220.042,131.488a4.025,4.025,0,0,1-.351.926,3.126,3.126,0,0,1-1.108,1.019c-1.7,1.079-4.282,2.24-5.722,3.8a2,2,0,0,0-.426.63,2.7,2.7,0,0,0,.19,1.752,1.956,1.956,0,0,0,.439.816,1.256,1.256,0,0,0,1.311.03,43.631,43.631,0,0,0,4.93-2.18,19.9,19.9,0,0,0,2.62-1.576,2.722,2.722,0,0,0,.859-.9,3.657,3.657,0,0,0,.313-1.105c.3-2.011.509-4.044.613-6.086l.321-4.792c.064-.923,2.328-4.151,1.646-4.785-1.338-1.241-3.284,2.137-3.589,2.831C221.227,123.819,220.376,130.306,220.042,131.488Z" transform="translate(5548.968 3205.769)" fill="url(#linear-gradient)"/>
      <path id="Path_133" data-name="Path 133" d="M291.18,271.474a2.533,2.533,0,0,1,.358,1.33,1.27,1.27,0,0,1-.55.865,1.168,1.168,0,0,1-.984.144,2.187,2.187,0,0,1-.715-.5,36.758,36.758,0,0,1-6.206-8.06c-.479-.8-.943-1.6-1.35-2.439a21.113,21.113,0,0,1-2.113-9.146.815.815,0,0,1,.121-.519.694.694,0,0,1,.375-.207,5.206,5.206,0,0,1,4.211.441c1.215.926.922,3.843.869,5.17a4.184,4.184,0,0,0,.16,1.682,4.273,4.273,0,0,0,.887,1.235C288.722,264.254,289.582,268.109,291.18,271.474Z" transform="translate(5499.968 3104.037)" fill="#f3bd8f"/>
      <path id="Path_134" data-name="Path 134" d="M253.131,260a29.077,29.077,0,0,1-1.076,9.851,1.508,1.508,0,0,1-.366.74.7.7,0,0,1-.824.023,2.6,2.6,0,0,1-.978-2,75.618,75.618,0,0,1-.679-10.679c0-1.688.04-3.3-.069-4.977-.109-1.728-.271-3.454-.271-5.191a.834.834,0,0,1,.076-.5.493.493,0,0,1,.449-.169c1.031,0,2.912-.714,3.714.074,1.057,1.037-.634,5.6-.8,6.917-.283,2.2.513,2.857.748,5.031C253.083,259.429,253.109,259.715,253.131,260Z" transform="translate(5521.968 3109.037)" fill="#f5bd8d"/>
      <path id="Path_135" data-name="Path 135" d="M244.987,217.109a.9.9,0,0,0,.28.75,1.989,1.989,0,0,0,.826.311,30.93,30.93,0,0,0,4.972.473,2.985,2.985,0,0,0,1.473-.187,1.435,1.435,0,0,0,.529-.572l1.861-3.045a17.88,17.88,0,0,0-.125,3.232.742.742,0,0,0,.287.645,1.894,1.894,0,0,0,.951.189,52.3,52.3,0,0,0,7.709-.374,13.015,13.015,0,0,0,.522-7.487,5.444,5.444,0,0,0-1.251-2.795,2.118,2.118,0,0,0-.782-.566,4.427,4.427,0,0,0-1.564-.2,115.964,115.964,0,0,0-11.747.282c-1.21.115-1.844.367-2.265,1.158a14.658,14.658,0,0,0-1.264,3.831,18.5,18.5,0,0,0-.411,4.35Z" transform="translate(5524.016 3142.037)" fill="#c79081"/>
      <path id="Path_136" data-name="Path 136" d="M264.7,218.532l-.636.07a57.592,57.592,0,0,1-7.451.3,2.077,2.077,0,0,1-1-.189.724.724,0,0,1-.3-.642,16.657,16.657,0,0,1,.106-3V215a.5.5,0,0,1,.018-.148h0c-.651,1.009-1.3,2.022-1.948,3.03a1.461,1.461,0,0,1-.555.571,3.174,3.174,0,0,1-1.545.186h-.244a32.177,32.177,0,0,1-4.951-.463,2.123,2.123,0,0,1-.866-.31.876.876,0,0,1-.294-.748,17.547,17.547,0,0,1,.431-4.346,14.1,14.1,0,0,1,1.319-3.8c.442-.788,1.107-1.04,2.376-1.155,4.07-.368,8.229-.308,12.324-.281a5.516,5.516,0,0,1,1.5.148,1.359,1.359,0,0,1,.141.047,2.22,2.22,0,0,1,.82.564,5.3,5.3,0,0,1,1.312,2.785A12.359,12.359,0,0,1,264.7,218.532Z" transform="translate(5523.016 3142.037)" fill="url(#linear-gradient-2)"/>
      <path id="Path_139" data-name="Path 139" d="M266.167,104.507a2.067,2.067,0,0,1-.815,1.52c-.749.521-1.886.49-2.827.782a.847.847,0,0,0-.314.151.485.485,0,0,0-.143.22,1.448,1.448,0,0,0,.11,1.137,4.9,4.9,0,0,0,3.218,2.289,12.476,12.476,0,0,0,4.48.242,4.133,4.133,0,0,0,1.417-.314,2.972,2.972,0,0,0,1.071-1.036,2.935,2.935,0,0,0,.574-1.215,1.133,1.133,0,0,0-.595-1.159,3.776,3.776,0,0,0-.66-.236,6.726,6.726,0,0,1-1.039-.4,1.375,1.375,0,0,1-.737-.628,1.182,1.182,0,0,1,.037-.691,4.871,4.871,0,0,0,0-2.311,1.826,1.826,0,0,0-.269-.65,1.753,1.753,0,0,0-1.222-.655,2.041,2.041,0,0,0-1.421.341C266.073,102.566,266.281,103.634,266.167,104.507Z" transform="translate(5505.642 3233.02) rotate(-3)" fill="#f3bd8f"/>
      <path id="Path_140" data-name="Path 140" d="M261.131,86.653A4.06,4.06,0,0,0,261.3,88.3c.5,1.28,2.2,2.1,3.891,2.158a3.275,3.275,0,0,0,2.392-.715,6.48,6.48,0,0,0,2.623-3.114,4.789,4.789,0,0,0,.152-1.427,4.543,4.543,0,0,0-.455-2.065,4.629,4.629,0,0,0-3.626-2.192,6.678,6.678,0,0,0-4.35,1.3c-.6.408-.51,1.21-.585,1.821C261.24,84.926,261.169,85.791,261.131,86.653Z" transform="translate(5513.665 3232.06)" fill="#f3bd8f"/>
      <path id="Path_141" data-name="Path 141" d="M256.745,73.884a4.721,4.721,0,0,1-1.038,1.443c-.206.146-.447.252-.638.411a1.247,1.247,0,0,0-.078,1.76,2.053,2.053,0,0,0,1.932.541,2.8,2.8,0,0,0,1.655-1.145c.247-.352.468-.78.895-.91a1.327,1.327,0,0,1,1.082.246c.313.206.576.476.895.661A4.152,4.152,0,0,1,262,77.2c.513.4.435,1.132.316,1.738.215.06.256-.29.444-.4a.31.31,0,0,1,.438.233.759.759,0,0,1-.164.514A7.369,7.369,0,0,0,261.8,81.7a.553.553,0,0,0,.018.355.712.712,0,0,0,.423.271,2.559,2.559,0,0,0,.945.176,1.062,1.062,0,0,0,.826-.4,1.217,1.217,0,0,0,.164-.506,11.05,11.05,0,0,1,.262-1.746c.361-1.132,1.431-2.117,1.273-3.284A3.48,3.48,0,0,0,265,75.113a4.419,4.419,0,0,0-.751-.9,4.729,4.729,0,0,0-.942-.568,7.556,7.556,0,0,0-2.26-.788,14.405,14.405,0,0,0-2.713.189A1.67,1.67,0,0,0,256.745,73.884Z" transform="translate(5521.961 3230.601) rotate(2)" fill="#2e2e3f"/>
      <path id="Path_142" data-name="Path 142" d="M268.078,140.751a6.791,6.791,0,0,1-2.237.637,41.86,41.86,0,0,1-13.018-.016,3.444,3.444,0,0,1-2.279-.97,1.653,1.653,0,0,1-.19-1.02q.153-4.9.306-9.8a63.573,63.573,0,0,1,1-11.109,5.427,5.427,0,0,1,1.253-2.129c.5-.483,2.763-.225,4.654-1.091.518-.238-.608.991,1.085,1.5,1.756.528,3.729-1.947,4.8-.954.6.555,2.51.143,3.114.695a4.628,4.628,0,0,1,.973,2.512,58.057,58.057,0,0,1,.373,6.847c.317,4.15-.175,9.444,1.76,12.871C270.111,139.47,268.951,140.263,268.078,140.751Z" transform="translate(5518.968 3209.305)" fill="#fee140"/>
      <path id="Path_143" data-name="Path 143" d="M289.532,152.48a15.812,15.812,0,0,1-3.658.681q-2.626.27-5.3.4l-.5-.031a10.079,10.079,0,0,0,1.329-6.116c0-1.13-.073-2.275-.122-3.411a2.418,2.418,0,0,0-.884-2.086,5.216,5.216,0,0,0-3.944-.633c2.286-.639,4.157-3.34,5.1-4.448a14.274,14.274,0,0,0,2.816-4.982c.354-1.17.219-3.227,4.084-2.674l.213.034c.658,2.569.494,6.056.61,7.325.518,4.44-.286,10.1,2.877,13.769C292.854,151.109,290.958,151.957,289.532,152.48Z" transform="translate(5496.968 3197.629)" fill="url(#linear-gradient-3)"/>
      <path id="Path_144" data-name="Path 144" d="M250.871,323.915a.647.647,0,0,1,.38.147.45.45,0,0,1,.069.313c0,.627.513,1.194.485,1.815-.02.555-.465,1.075-.4,1.63,0,.11.036.238-.065.313a.509.509,0,0,1-.23.075q-3.044.451-6.117.787a2,2,0,0,1-1.128-.094.973.973,0,0,1-.36-.357c-.554-.875-.061-1.947.691-2.727C246.032,323.9,247.806,323.436,250.871,323.915Z" transform="translate(5523.968 3054.037)" fill="#2e2e3f"/>
      <path id="Path_145" data-name="Path 145" d="M313.06,318.326a2.848,2.848,0,0,1-.87,1.6,13.813,13.813,0,0,1-3.706,2.88,1.355,1.355,0,0,1-.9.224,1.316,1.316,0,0,1-.813-1.292,4.409,4.409,0,0,1,.374-1.664c.656-1.784,1.112-4.4,2.863-5.108C311.537,314.362,313.224,316.55,313.06,318.326Z" transform="translate(5480.499 3060.037)" fill="#2e2e3f"/>
      <path id="Path_146" data-name="Path 146" d="M249.831,323.919a.513.513,0,0,1,.328.151.53.53,0,0,1,.059.32c0,.641.443,1.221.419,1.856-.017.567-.4,1.1-.349,1.667,0,.112.031.244-.056.32a.4.4,0,0,1-.2.077q-2.628.461-5.281.8a1.475,1.475,0,0,1-.974-.1.933.933,0,0,1-.311-.365,2.622,2.622,0,0,1,.6-2.788C245.653,323.9,247.185,323.429,249.831,323.919Z" transform="translate(5524.782 3053.918)" fill="url(#linear-gradient-4)"/>
      <path id="Path_148" data-name="Path 148" d="M254.809,127.266a1.542,1.542,0,0,1-.1.821,2.032,2.032,0,0,1-.995.781L244.9,133.3a2.057,2.057,0,0,0-1.032.834c-.388.883.828,1.675,1.885,1.745a9.071,9.071,0,0,0,3.245-.545,60.363,60.363,0,0,0,9.562-3.839,1.509,1.509,0,0,0,1.094-1.692,36.017,36.017,0,0,0-.557-6.452,5.845,5.845,0,0,0-1.385-3.272c-1.313-1.324-3.71-1.364-3.916.576C253.566,122.853,254.642,125.1,254.809,127.266Z" transform="translate(5529.59 3207.589)" fill="#43e97b"/>
      <path id="Path_149" data-name="Path 149" d="M253.379,127.1a1.686,1.686,0,0,1-.084.8,1.821,1.821,0,0,1-.865.765L244.755,133a1.852,1.852,0,0,0-.9.817c-.338.864.72,1.64,1.64,1.709a7.1,7.1,0,0,0,2.823-.534,49.3,49.3,0,0,0,8.321-3.76,1.493,1.493,0,0,0,.952-1.657,39.586,39.586,0,0,0-.485-6.318,6.112,6.112,0,0,0-1.205-3.2c-1.142-1.3-3.228-1.335-3.407.564C252.3,122.776,253.234,124.976,253.379,127.1Z" transform="translate(5530.981 3207.589)" fill="url(#linear-gradient-5)"/>
      <path id="Path_150" data-name="Path 150" d="M234.677,186.656a4.763,4.763,0,0,0-3.08,1.095,2.337,2.337,0,0,0-.58,2.838,1.466,1.466,0,0,0,.826.681,1.791,1.791,0,0,0,.969-.028c.893-.247,1.629-.876,2.5-1.216a1.106,1.106,0,0,1,.683-.069,2.806,2.806,0,0,1,.42.239,1.46,1.46,0,0,0,1.205.036,2.173,2.173,0,0,0,.919-.75,2.025,2.025,0,0,0,.446-1.4c-.089-.77-.58-1.018-1.312-1.095A23.036,23.036,0,0,0,234.677,186.656Z" transform="translate(5538.542 3153.037)" fill="#f3bd8f"/>
      <path id="Path_151" data-name="Path 151" d="M205.366,178.361a4.835,4.835,0,0,0-.738,1.9,2.379,2.379,0,0,0,.027,1,1.428,1.428,0,0,0,1.34,1.034,2.875,2.875,0,0,0,1.6-.6,20.864,20.864,0,0,0,2.551-2.112,2.223,2.223,0,0,0,.441-.5,1.778,1.778,0,0,0-.2-1.9C209.065,175.571,206.358,176.866,205.366,178.361Z" transform="translate(5551.968 3167.037)" fill="#f3bd8f"/>
      <rect id="Rectangle_253" data-name="Rectangle 253" width="0.77" height="25.72" transform="translate(5727.309 3351.782) rotate(-20.04)" fill="#fefefe"/>
      <path id="Path_153" data-name="Path 153" d="M124.694,232.221H100.267L90.79,206.9h41.964ZM101.284,230.8H123.6l6.529-22.485H92.879Z" transform="translate(5630.888 3144.037)" fill="#fff"/>
      <rect id="Rectangle_253-2" data-name="Rectangle 253" width="0.77" height="25.72" transform="translate(5732.309 3351.782) rotate(-20.04)" fill="#fefefe"/>
      <rect id="Rectangle_253-3" data-name="Rectangle 253" width="0.77" height="25.72" transform="translate(5739.443 3351.05) rotate(-10)" fill="#fefefe"/>
      <rect id="Rectangle_253-4" data-name="Rectangle 253" width="0.77" height="25.72" transform="translate(5749.461 3350.702) rotate(8)" fill="#fefefe"/>
      <rect id="Rectangle_253-5" data-name="Rectangle 253" width="0.77" height="25.72" transform="translate(5752.685 3350.72) rotate(9)" fill="#fefefe"/>
      <rect id="Rectangle_248" data-name="Rectangle 248" width="36.05" height="0.77" transform="translate(5724.688 3357.797)" fill="#fff"/>
      <rect id="Rectangle_248-2" data-name="Rectangle 248" width="32.05" height="0.77" transform="translate(5726.688 3362.797)" fill="#fff"/>
      <rect id="Rectangle_248-3" data-name="Rectangle 248" width="29.05" height="0.77" transform="translate(5728.688 3367.797)" fill="#fff"/>
      <rect id="Rectangle_248-4" data-name="Rectangle 248" width="26.05" height="0.77" transform="translate(5729.688 3371.797)" fill="#fff"/>
      <path id="Path_155" data-name="Path 155" d="M113.15,290.675H89.49v-.881h22.45V285.84h1.211Z" transform="translate(5642.588 3089.717)" fill="#fefefe"/>
      <path id="Path_129" data-name="Path 129" d="M164.808,319.737a1.558,1.558,0,0,1-1.376-.891,1.771,1.771,0,0,1,.084-1.716h0a1.513,1.513,0,0,1,1.906-.612,1.7,1.7,0,0,1,.931,1.879A1.6,1.6,0,0,1,164.808,319.737Zm-.534-2.056a.717.717,0,0,0,.176.954.619.619,0,0,0,.894-.187.718.718,0,0,0-.174-.955.611.611,0,0,0-.484-.1A.644.644,0,0,0,164.275,317.681Z" transform="translate(5581.968 3063.037)" fill="#2e2e3f"/>
      <path id="Path_129-2" data-name="Path 129" d="M164.808,319.737a1.558,1.558,0,0,1-1.376-.891,1.771,1.771,0,0,1,.084-1.716h0a1.513,1.513,0,0,1,1.906-.612,1.7,1.7,0,0,1,.931,1.879A1.6,1.6,0,0,1,164.808,319.737Zm-.534-2.056a.717.717,0,0,0,.176.954.619.619,0,0,0,.894-.187.718.718,0,0,0-.174-.955.611.611,0,0,0-.484-.1A.644.644,0,0,0,164.275,317.681Z" transform="translate(5586.968 3063.037)" fill="#2e2e3f"/>
      <path id="Path_129-3" data-name="Path 129" d="M164.808,319.737a1.558,1.558,0,0,1-1.376-.891,1.771,1.771,0,0,1,.084-1.716h0a1.513,1.513,0,0,1,1.906-.612,1.7,1.7,0,0,1,.931,1.879A1.6,1.6,0,0,1,164.808,319.737Zm-.534-2.056a.717.717,0,0,0,.176.954.619.619,0,0,0,.894-.187.718.718,0,0,0-.174-.955.611.611,0,0,0-.484-.1A.644.644,0,0,0,164.275,317.681Z" transform="translate(5569.968 3063.037)" fill="#2e2e3f"/>
      <path id="Path_155-2" data-name="Path 155" d="M107.15,291.308H89.49v-1h16.757V285.84h.9Z" transform="translate(5642.588 3089.084)" fill="#fefefe"/>
      <path id="Path_129-4" data-name="Path 129" d="M164.808,319.737a1.558,1.558,0,0,1-1.376-.891,1.771,1.771,0,0,1,.084-1.716h0a1.513,1.513,0,0,1,1.906-.612,1.7,1.7,0,0,1,.931,1.879A1.6,1.6,0,0,1,164.808,319.737Zm-.534-2.056a.717.717,0,0,0,.176.954.619.619,0,0,0,.894-.187.718.718,0,0,0-.174-.955.611.611,0,0,0-.484-.1A.644.644,0,0,0,164.275,317.681Z" transform="translate(5575.968 3063.037)" fill="#2e2e3f"/>
    </g>
    <path id="Path_159" data-name="Path 159" d="M84.642,330.352c-.872.234-1.932.787-1.51,1.372a1.648,1.648,0,0,0,.786.452c8.878,3.295,19.274,3.706,29.3,4.054l39.087,1.344c6.213.212,12.71.389,18.353-1.448a41.783,41.783,0,0,0,6.088-2.685q4.043-2.049,8-4.152c.66-.348,1.348-.753,1.5-1.325.148-.658-.575-1.29-1.447-1.553a9.151,9.151,0,0,0-2.8-.221q-12.952.316-25.914.256c-5.481-.022-10.98-.089-16.421-.576-8.86-.794-17.306-1.644-26.246-.854A167.622,167.622,0,0,0,84.642,330.352Z" transform="translate(5533.162 3055.297)" fill="url(#linear-gradient-6)"/>
    <text id="selamat_berbelanja_dan_nikmatilah_produk_produk_berkualitas" data-name="selamat berbelanja dan nikmatilah 
produk produk berkualitas" transform="translate(5439 3376)" fill="#fff" font-size="12" font-family="MonotypeCorsiva, Monotype Corsiva"><tspan x="-73.775" y="0">selamat berbelanja dan nikmatilah </tspan><tspan x="-55.901" y="13">produk produk berkualitas</tspan></text>
    <path id="Path_161" data-name="Path 161" d="M0,0H161" transform="translate(5363.5 3358.5)" fill="none" stroke="#fbfbfb" stroke-width="2"/>
  </g>
</svg>
